<svg version="1.2" xmlns="http://www.w3.org/2000/svg" viewBox="0 0 1029 1029" width="1029" height="1029">
	<title>vecteezy_three-cute-paws-up-cat-pet-orange-brown-and-black-leg-cats_19850800-svg</title>
	<style>
		.s0 { fill: #ff9955 } 
		.s1 { fill: #ffd5d5 } 
	</style>
	<path class="s0" d="m510.1 38c-68.3-43.1-138.4-45.2-199.8-19.4-61.3 25.9-112.5 89.4-123.5 154-72.5-2.1-122.9 57-148.8 118.3-25.8 61.4-33.6 141.2-30.9 229.3 2.8 88.1 50.9 296.2 50.9 296.2l18.3 1067.6h867.6l15.7-1088.5 54.8-236.9c16-69.1 20.4-213.6-9.2-273.2-30.4-61.3-64.2-101.7-147.4-107.4 2.7-63.8-86.7-127-148-152.9-61.3-25.8-147.1-32.8-199.7 12.9z"/>
	<path class="s1" d="m735.3 266.4c-8.5 31.7-26.6 59.5-50.4 77.1-23.7 17.7-51.1 23.8-76.2 17.1-25.1-6.7-45.8-25.7-57.5-52.9-11.7-27.2-13.5-60.3-5-91.9 17.7-66.1 74.3-108.2 126.6-94.2 52.2 14 80.2 78.8 62.5 144.8z"/>
	<path class="s1" d="m901.2 483.3c-16.4 28.4-41.1 50.5-68.6 61.4-27.5 11-55.6 9.8-78-3.2-46.9-27-57.1-96.9-22.9-156.1 34.1-59.2 99.8-85.2 146.6-58.2 22.5 13 37.5 36.7 41.8 66 4.3 29.3-2.5 61.7-18.9 90.1z"/>
	<path class="s1" d="m271.4 385.4c34.2 59.2 23.9 129.1-22.9 156.1-46.8 27.1-112.5 1-146.6-58.2-34.2-59.2-24-129.1 22.9-156.1 46.8-27 112.4-1 146.6 58.2z"/>
	<path class="s1" d="m458.9 215.8c17.7 66-10.3 130.8-62.5 144.8-52.2 14-108.9-28.2-126.6-94.2-17.7-66 10.3-130.8 62.6-144.8 52.2-14 108.8 28.1 126.5 94.1z"/>
	<path class="s1" d="m507.5 422.1c-74.6 0-135 58-135 129.7 0 9.1 1.1 18.2 3.1 27.1-77.1 12.1-132.6 65.2-132.6 127 0 34.4 17.4 67.4 48.3 91.7 31 24.3 73 38 116.8 38 37 0 73-9.8 102.1-27.8 29 17.9 64.9 27.7 101.9 27.8 43.8 0 85.8-13.7 116.7-38 31-24.3 48.4-57.3 48.4-91.7-0.1-63.2-58.1-117.1-137.4-127.7 1.9-8.7 2.8-17.6 2.8-26.4 0-71.7-60.5-129.7-135.1-129.7z"/>
</svg>